<?xml version="1.0" standalone="no"?>
<!DOCTYPE svg PUBLIC "-//W3C//DTD SVG 20010904//EN"
 "http://www.w3.org/TR/2001/REC-SVG-20010904/DTD/svg10.dtd">
<svg version="1.0" xmlns="http://www.w3.org/2000/svg"
 width="84.000000pt" height="53.000000pt" viewBox="0 0 84.000000 53.000000"
 preserveAspectRatio="xMidYMid meet">

<g transform="translate(0.000000,53.000000) scale(0.100000,-0.100000)"
fill="#000000" stroke="none">
<path d="M40 280 l0 -160 60 0 60 0 0 160 0 160 -60 0 -60 0 0 -160z"/>
<path d="M180 280 l0 -160 50 0 50 0 0 45 c0 25 4 45 8 45 4 0 18 -20 30 -45
l22 -45 170 0 170 0 0 160 0 160 -50 0 -50 0 0 -110 0 -110 -25 0 c-22 0 -25
4 -25 35 0 35 0 35 -45 35 l-44 0 -3 -62 -3 -63 -24 48 c-14 26 -30 47 -37 47
-7 0 2 26 22 63 18 34 34 74 34 90 0 25 -3 27 -43 27 -39 0 -44 -3 -72 -47
l-30 -48 -3 48 -3 47 -50 0 -49 0 0 -160z"/>
<path d="M690 280 l0 -160 60 0 60 0 0 160 0 160 -60 0 -60 0 0 -160z"/>
</g>
</svg>
